<svg xmlns="http://www.w3.org/2000/svg">
    <symbol id="back" viewBox="0 0 32.635 32.635">
       <g> <path d="M32.135,16.817H0.5c-0.276,0-0.5-0.224-0.5-0.5s0.224-0.5,0.5-0.5h31.635c0.276,0,0.5,0.224,0.5,0.5
		S32.411,16.817,32.135,16.817z"/> <path d="M13.037,29.353c-0.128,0-0.256-0.049-0.354-0.146L0.146,16.669C0.053,16.575,0,16.448,0,16.315s0.053-0.26,0.146-0.354
		L12.684,3.429c0.195-0.195,0.512-0.195,0.707,0s0.195,0.512,0,0.707L1.207,16.315l12.184,12.184c0.195,0.195,0.195,0.512,0,0.707
		C13.293,29.304,13.165,29.353,13.037,29.353z"/> </g>                
    </symbol>
    <symbol id="calendar" viewBox="0 0 511.634 511.634">
       <g> <path d="M482.513,83.942c-7.225-7.233-15.797-10.85-25.694-10.85h-36.541v-27.41c0-12.56-4.477-23.315-13.422-32.261
		C397.906,4.475,387.157,0,374.591,0h-18.268c-12.565,0-23.318,4.475-32.264,13.422c-8.949,8.945-13.422,19.701-13.422,32.261v27.41
		h-109.63v-27.41c0-12.56-4.475-23.315-13.422-32.261C178.64,4.475,167.886,0,155.321,0H137.05
		c-12.562,0-23.317,4.475-32.264,13.422c-8.945,8.945-13.421,19.701-13.421,32.261v27.41H54.823c-9.9,0-18.464,3.617-25.697,10.85
		c-7.233,7.232-10.85,15.8-10.85,25.697v365.453c0,9.89,3.617,18.456,10.85,25.693c7.232,7.231,15.796,10.849,25.697,10.849h401.989
		c9.897,0,18.47-3.617,25.694-10.849c7.234-7.234,10.852-15.804,10.852-25.693V109.639
		C493.357,99.739,489.743,91.175,482.513,83.942z M347.187,45.686c0-2.667,0.849-4.858,2.56-6.567
		c1.711-1.711,3.901-2.568,6.57-2.568h18.268c2.67,0,4.853,0.854,6.57,2.568c1.712,1.712,2.567,3.903,2.567,6.567v82.224
		c0,2.666-0.855,4.853-2.567,6.567c-1.718,1.709-3.9,2.568-6.57,2.568h-18.268c-2.669,0-4.859-0.855-6.57-2.568
		c-1.711-1.715-2.56-3.901-2.56-6.567V45.686z M127.915,45.686c0-2.667,0.855-4.858,2.568-6.567
		c1.714-1.711,3.901-2.568,6.567-2.568h18.271c2.667,0,4.858,0.854,6.567,2.568c1.711,1.712,2.57,3.903,2.57,6.567v82.224
		c0,2.666-0.855,4.856-2.57,6.567c-1.713,1.709-3.9,2.568-6.567,2.568H137.05c-2.666,0-4.856-0.855-6.567-2.568
		c-1.709-1.715-2.568-3.901-2.568-6.567V45.686z M456.812,475.088H54.823v-292.36h401.989V475.088z"/> </g>                
    </symbol>
    <symbol id="next" viewBox="0 0 32.635 32.635">
       <g> <path d="M32.135,16.817H0.5c-0.276,0-0.5-0.224-0.5-0.5s0.224-0.5,0.5-0.5h31.635c0.276,0,0.5,0.224,0.5,0.5
		S32.411,16.817,32.135,16.817z"/> <path d="M19.598,29.353c-0.128,0-0.256-0.049-0.354-0.146c-0.195-0.195-0.195-0.512,0-0.707l12.184-12.184L19.244,4.136
		c-0.195-0.195-0.195-0.512,0-0.707s0.512-0.195,0.707,0l12.537,12.533c0.094,0.094,0.146,0.221,0.146,0.354
		s-0.053,0.26-0.146,0.354L19.951,29.206C19.854,29.304,19.726,29.353,19.598,29.353z"/> </g>                
    </symbol>
    <symbol id="tag" viewBox="0 0 487.85 487.85">
       <g> <path d="M479,215.275l-83.5-113.9c-11-15-33.3-26.3-51.8-26.3H39.2c-21.6,0-39.2,17.6-39.2,39.2v259.3c0,21.6,17.6,39.2,39.2,39.2
		h304.5c18.6,0,40.9-11.3,51.8-26.3l83.5-113.9C490.8,256.575,490.8,231.375,479,215.275z M457.2,256.775l-83.5,113.9
		c-5.8,8-20.2,15.2-30.1,15.2H39.2c-6.7,0-12.2-5.5-12.2-12.2v-259.4c0-6.7,5.5-12.2,12.2-12.2h304.5c9.9,0,24.2,7.3,30.1,15.2
		l83.5,113.9C462.1,237.875,462.1,250.075,457.2,256.775z"/> </g>                
    </symbol></svg>